<svg width="69" height="34" viewBox="0 0 69 34" fill="none" xmlns="http://www.w3.org/2000/svg">
<g clip-path="url(#clip0_42_11)">
<path d="M52.0166 11.1302C49.6636 9.57957 47.2548 8.42275 44.809 7.66061L45.3168 5.82243L51.2161 4.88757L53.4429 10.4364L52.706 11.5975C52.4796 11.4398 52.25 11.2839 52.0166 11.1302ZM43.156 7.20474L43.6813 5.29938L37.9009 0.624786L32.0176 5.29911L32.595 7.2148C34.2757 6.78123 35.9824 6.56499 37.7287 6.56499C39.5507 6.56499 41.3623 6.77933 43.156 7.20474ZM21.2693 13.6925L20.3076 12.4671L15.1035 13.1953L14.5132 18.6157L15.459 19.4192C17.3222 17.4561 19.234 15.4825 21.2693 13.6925ZM30.9346 7.71746L30.3702 5.89315L24.1069 4.99419L21.6339 11.3245L22.6282 12.5425C23.2756 12.0164 23.9363 11.5119 24.6128 11.0348C26.7043 9.55971 28.8021 8.45893 30.9346 7.71746ZM59.2349 17.3846L59.8691 16.762L59.3346 11.9199L54.8113 11.5733L54.0248 12.5618C56.1485 14.1902 57.8991 15.9096 59.2349 17.3846ZM5.07932 21.1714C3.85322 21.7888 2.7441 23.599 2.7441 25.0757C2.7441 27.0643 4.13353 28.7346 6.33021 28.7346C9.4565 28.7346 11.9599 25.4353 15.0902 22.134C21.4622 15.4137 27.9515 8.1717 37.729 8.1717C48.2051 8.1717 55.8868 15.7904 59.167 19.7439C60.3343 21.1505 61.8264 21.8337 63.6199 21.8337C63.6913 21.8337 63.7633 21.8326 63.8352 21.8305L67.9025 24.2189C68.2485 24.4223 68.4609 24.7958 68.4609 25.2C68.4609 25.8269 67.9572 26.3356 67.3356 26.3356L54.7744 26.3353L56.314 31.3077L57.8508 33.3755H53.44L50.7579 26.3353H48.7485L46.5529 28.7012L47.3399 31.3077L48.8771 33.3755H44.4662L42.3784 27.5691L43.4199 26.335H36.5018L37.2702 27.5571L35.3997 31.3077L35.7199 33.3755H31.0044L32.6588 28.7012L31.1077 26.335H30.1207L27.182 31.3086L27.5003 33.3755H22.4797L25.5915 26.3348H24.9904C22.225 26.3348 20.1739 27.9099 15.7727 30.3658C11.6785 32.6503 9.92091 33.3755 6.69138 33.3755C3.76832 33.3752 0.539062 31.0749 0.539062 27.1668C0.539062 23.435 3.45431 21.5079 5.07932 21.1714ZM63.5194 23.5247C63.5194 23.887 63.8102 24.1805 64.1692 24.1805C64.5053 24.1805 64.7786 23.9221 64.8123 23.5919L63.7916 22.9927C63.6274 23.1118 63.5194 23.3052 63.5194 23.5247Z" fill="#717171" stroke="#717171"/>
</g>
<defs>
<clipPath id="clip0_42_11">
<rect width="69" height="34" fill="white"/>
</clipPath>
</defs>
</svg>
